<svg width="104" height="104" viewBox="0 0 104 104" fill="none" xmlns="http://www.w3.org/2000/svg">
<path d="M89 0C96.8337 7.31057e-07 103.263 6.00518 103.939 13.6631C78.0949 28.8989 56.123 49.975 39.8447 75.0684C27.966 62.9483 14.5845 52.3064 0 43.4473V15C7.73159e-07 6.71573 6.71573 0 15 0H89Z" fill="white"/>
<mask id="mask0_14_3795" style="mask-type:alpha" maskUnits="userSpaceOnUse" x="0" y="0" width="104" height="104">
<rect width="104" height="104" rx="15" fill="#D9D9D9"/>
</mask>
<g mask="url(#mask0_14_3795)">
<circle cx="-110" cy="224" r="200" fill="white"/>
<path d="M210.5 -4C315.158 -4 400 80.842 400 185.5C400 290.158 315.158 375 210.5 375C155.923 375 106.737 351.927 72.1592 315.005C87.9946 286.051 97 252.828 97 217.5C97 167.491 78.9605 121.695 49.0342 86.2637C82.3901 32.1062 142.227 -4 210.5 -4Z" fill="white"/>
</g>
</svg>
